<?xml version="1.0" encoding="UTF-8" standalone="no"?>
<!DOCTYPE svg PUBLIC "-//W3C//DTD SVG 1.1//EN" "http://www.w3.org/Graphics/SVG/1.1/DTD/svg11.dtd">
<!-- Generated by Microsoft Visio, SVG Export up_down_counter_state_diagram.svg Page-1 -->
<svg xmlns="http://www.w3.org/2000/svg" xmlns:xlink="http://www.w3.org/1999/xlink" xmlns:ev="http://www.w3.org/2001/xml-events"
		xmlns:v="http://schemas.microsoft.com/visio/2003/SVGExtensions/" width="5.57384in" height="3.95155in"
		viewBox="0 0 401.317 284.511" xml:space="preserve" color-interpolation-filters="sRGB" class="st9">
	<v:documentProperties v:langID="1033" v:metric="true" v:viewMarkup="false"/>

	<style type="text/css">
	<![CDATA[
		.st1 {fill:#3c4e62;stroke:url(#grad0-4);stroke-linecap:butt;stroke-width:1.7}
		.st2 {fill:#000000;font-family:Calibri;font-size:1.00001em;font-weight:bold}
		.st3 {fill:#000000;font-family:Calibri;font-size:1.00001em}
		.st4 {marker-end:url(#mrkr13-23);stroke:#606c7b;stroke-linecap:butt;stroke-width:1.5}
		.st5 {fill:#606c7b;fill-opacity:1;stroke:#606c7b;stroke-opacity:1;stroke-width:0.37313432835821}
		.st6 {fill:#ffffff;stroke:none;stroke-linecap:butt;stroke-width:7.2}
		.st7 {fill:#3e5066;font-family:Calibri;font-size:0.666664em}
		.st8 {fill:#ffffff;stroke:none;stroke-linecap:butt}
		.st9 {fill:none;fill-rule:evenodd;font-size:12px;overflow:visible;stroke-linecap:square;stroke-miterlimit:3}
	]]>
	</style>

	<defs id="Patterns_And_Gradients">
		<linearGradient id="grad0-4" x1="0" y1="0" x2="1" y2="0" gradientTransform="rotate(90 0.5 0.5)">
			<stop offset="0" stop-color="#cacccf" stop-opacity="1"/>
			<stop offset="1" stop-color="#314052" stop-opacity="1"/>
		</linearGradient>
	</defs>
	<defs id="Markers">
		<g id="lend13">
			<path d="M 3 1 L 0 0 L 3 -1 L 3 1 " style="stroke:none"/>
		</g>
		<marker id="mrkr13-23" class="st5" v:arrowType="13" v:arrowSize="2" v:setback="7.8" refX="-7.8" orient="auto"
				markerUnits="strokeWidth" overflow="visible">
			<use xlink:href="#lend13" transform="scale(-2.68,-2.68) "/>
		</marker>
	</defs>
	<g v:mID="0" v:index="1" v:groupContext="foregroundPage">
		<title>Page-1</title>
		<v:pageProperties v:drawingScale="0.0393701" v:pageScale="0.0393701" v:drawingUnits="24" v:shadowOffsetX="8.50394"
				v:shadowOffsetY="-8.50394"/>
		<v:layer v:name="Connector" v:index="0"/>
		<g id="shape1-1" v:mID="1" v:groupContext="shape" transform="translate(74.0035,-201.783)">
			<title>Initial state</title>
			<desc>AB - 00</desc>
			<v:userDefs>
				<v:ud v:nameU="visVersion" v:prompt="" v:val="VT0(15):26"/>
			</v:userDefs>
			<v:textBlock v:margins="rect(4,4,4,4)" v:tabSpace="42.5197"/>
			<v:textRect cx="17.0079" cy="295.713" width="45.98" height="22.4037"/>
			<ellipse cx="17.0079" cy="267.503" rx="17.0079" ry="17.0079" class="st1"/>
			<text x="-0.62" y="299.31" class="st2" v:langID="1033"><v:paragraph v:horizAlign="1"/><v:tabList/>AB - 00</text>		</g>
		<g id="shape10-6" v:mID="10" v:groupContext="shape" transform="translate(295.106,-201.783)">
			<title>Initial state.10</title>
			<desc>AB - 11</desc>
			<v:userDefs>
				<v:ud v:nameU="visVersion" v:prompt="" v:val="VT0(15):26"/>
			</v:userDefs>
			<v:textBlock v:margins="rect(4,4,4,4)" v:tabSpace="42.5197"/>
			<v:textRect cx="17.0079" cy="295.713" width="45.46" height="22.4037"/>
			<ellipse cx="17.0079" cy="267.503" rx="17.0079" ry="17.0079" class="st1"/>
			<text x="-0.36" y="299.31" class="st3" v:langID="1033"><v:paragraph v:horizAlign="1"/><v:tabList/>AB - 11</text>		</g>
		<g id="shape18-10" v:mID="18" v:groupContext="shape" transform="translate(74.0035,-48.7124)">
			<title>Initial state.18</title>
			<desc>AB - 01</desc>
			<v:userDefs>
				<v:ud v:nameU="visVersion" v:prompt="" v:val="VT0(15):26"/>
			</v:userDefs>
			<v:textBlock v:margins="rect(4,4,4,4)" v:tabSpace="42.5197"/>
			<v:textRect cx="17.0079" cy="295.713" width="45.46" height="22.4037"/>
			<ellipse cx="17.0079" cy="267.503" rx="17.0079" ry="17.0079" class="st1"/>
			<text x="-0.36" y="299.31" class="st3" v:langID="1033"><v:paragraph v:horizAlign="1"/><v:tabList/>AB - 01</text>		</g>
		<g id="shape21-14" v:mID="21" v:groupContext="shape" transform="translate(295.106,-48.7124)">
			<title>Initial state.21</title>
			<desc>AB - 10</desc>
			<v:userDefs>
				<v:ud v:nameU="visVersion" v:prompt="" v:val="VT0(15):26"/>
			</v:userDefs>
			<v:textBlock v:margins="rect(4,4,4,4)" v:tabSpace="42.5197"/>
			<v:textRect cx="17.0079" cy="295.713" width="45.46" height="22.4037"/>
			<ellipse cx="17.0079" cy="267.503" rx="17.0079" ry="17.0079" class="st1"/>
			<text x="-0.36" y="299.31" class="st3" v:langID="1033"><v:paragraph v:horizAlign="1"/><v:tabList/>AB - 10</text>		</g>
		<g id="shape25-18" v:mID="25" v:groupContext="shape" v:layerMember="0" transform="translate(91.0114,-228.712)">
			<title>Dynamic connector</title>
			<desc>Enable = 1 &#38; Direction = 0</desc>
			<v:textBlock v:margins="rect(4,4,4,4)" v:tabSpace="42.5197"/>
			<v:textRect cx="110.551" cy="241.425" width="94.01" height="17.6036"/>
			<path d="M0 277.42 C-0 241.42 55.28 241.42 110.55 241.42 C158.97 241.42 207.38 241.42 218.65 265.62 L218.73 265.97"
					class="st4"/>
			<rect v:rectContext="textBkgnd" x="68.4539" y="236.625" width="84.1948" height="9.59985" class="st6"/>
			<text x="68.45" y="243.82" class="st7" v:langID="1033"><v:paragraph v:horizAlign="1"/><v:tabList/>Enable = 1 &#38; Direction = 0</text>		</g>
		<g id="shape27-26" v:mID="27" v:groupContext="shape" v:layerMember="0" transform="translate(91.0114,-194.697)">
			<title>Dynamic connector.27</title>
			<desc>Enable = 1 &#38; Direction = 1</desc>
			<v:textBlock v:margins="rect(4,4,4,4)" v:tabSpace="42.5197"/>
			<v:textRect cx="110.551" cy="313.425" width="94.01" height="17.6036"/>
			<path d="M0 277.42 C-0 313.42 55.28 313.42 110.55 313.42 C158.97 313.42 207.38 313.42 218.65 289.23 L218.73 288.88"
					class="st4"/>
			<rect v:rectContext="textBkgnd" x="68.4539" y="308.625" width="84.1948" height="9.59985" class="st6"/>
			<text x="68.45" y="315.82" class="st7" v:langID="1033"><v:paragraph v:horizAlign="1"/><v:tabList/>Enable = 1 &#38; Direction = 1</text>		</g>
		<g id="shape30-33" v:mID="30" v:groupContext="shape" v:layerMember="0" transform="translate(66.9169,-218.791)">
			<title>Dynamic connector.30</title>
			<desc>Enable = 1 &#38; Direction = 1</desc>
			<v:textBlock v:margins="rect(4,4,4,4)" v:tabSpace="42.5197"/>
			<v:textRect cx="-19.9134" cy="361.047" width="94.01" height="17.6036"/>
			<path d="M7.09 284.51 C-24.86 284.51 -28.46 405.05 -3.7 432.2 L-3.38 432.36" class="st4"/>
			<rect v:rectContext="textBkgnd" x="-62.0107" y="356.247" width="84.1948" height="9.59985" class="st8"/>
			<text x="-62.01" y="363.45" class="st7" v:langID="1033"><v:paragraph v:horizAlign="1"/><v:tabList/>Enable = 1 &#38; Direction = 1</text>		</g>
		<g id="shape32-40" v:mID="32" v:groupContext="shape" v:layerMember="0" transform="translate(100.933,-65.7202)">
			<title>Dynamic connector.32</title>
			<desc>Enable = 1 &#38; Direction = 0</desc>
			<v:textBlock v:margins="rect(4,4,4,4)" v:tabSpace="42.5197"/>
			<v:textRect cx="34.0866" cy="207.976" width="94.01" height="17.6036"/>
			<path d="M7.09 284.51 C39.03 284.51 42.63 163.97 17.88 136.83 L17.56 136.66" class="st4"/>
			<rect v:rectContext="textBkgnd" x="-8.01069" y="203.176" width="84.1948" height="9.59985" class="st8"/>
			<text x="-8.01" y="210.38" class="st7" v:langID="1033"><v:paragraph v:horizAlign="1"/><v:tabList/>Enable = 1 &#38; Direction = 0</text>		</g>
		<g id="shape33-47" v:mID="33" v:groupContext="shape" v:layerMember="0" transform="translate(91.0114,-41.6257)">
			<title>Dynamic connector.33</title>
			<desc>Enable = 1 &#38; Direction = 1</desc>
			<v:textBlock v:margins="rect(4,4,4,4)" v:tabSpace="42.5197"/>
			<v:textRect cx="110.551" cy="313.425" width="94.01" height="17.6036"/>
			<path d="M0 277.42 C0 313.42 55.28 313.42 110.55 313.42 C158.97 313.42 207.38 313.42 218.65 289.23 L218.73 288.88"
					class="st4"/>
			<rect v:rectContext="textBkgnd" x="68.4539" y="308.625" width="84.1948" height="9.59985" class="st6"/>
			<text x="68.45" y="315.82" class="st7" v:langID="1033"><v:paragraph v:horizAlign="1"/><v:tabList/>Enable = 1 &#38; Direction = 1</text>		</g>
		<g id="shape34-54" v:mID="34" v:groupContext="shape" v:layerMember="0" transform="translate(312.114,-75.6415)">
			<title>Dynamic connector.34</title>
			<desc>Enable = 1 &#38; Direction = 0</desc>
			<v:textBlock v:margins="rect(4,4,4,4)" v:tabSpace="42.5197"/>
			<v:textRect cx="-110.551" cy="241.425" width="94.01" height="17.6036"/>
			<path d="M0 277.42 C-0 241.42 -55.28 241.42 -110.55 241.42 C-158.97 241.42 -207.38 241.42 -218.65 265.62 L-218.73 265.97"
					class="st4"/>
			<rect v:rectContext="textBkgnd" x="-152.648" y="236.625" width="84.1948" height="9.59985" class="st8"/>
			<text x="-152.65" y="243.82" class="st7" v:langID="1033"><v:paragraph v:horizAlign="1"/><v:tabList/>Enable = 1 &#38; Direction = 0</text>		</g>
		<g id="shape35-61" v:mID="35" v:groupContext="shape" v:layerMember="0" transform="translate(288.019,-218.791)">
			<title>Dynamic connector.35</title>
			<desc>Enable = 1 &#38; Direction = 0</desc>
			<v:textBlock v:margins="rect(4,4,4,4)" v:tabSpace="42.5197"/>
			<v:textRect cx="-19.9134" cy="361.047" width="94.01" height="17.6036"/>
			<path d="M7.09 284.51 C-24.86 284.51 -28.46 405.05 -3.7 432.2 L-3.38 432.36" class="st4"/>
			<rect v:rectContext="textBkgnd" x="-62.0107" y="356.247" width="84.1948" height="9.59985" class="st8"/>
			<text x="-62.01" y="363.45" class="st7" v:langID="1033"><v:paragraph v:horizAlign="1"/><v:tabList/>Enable = 1 &#38; Direction = 0</text>		</g>
		<g id="shape37-68" v:mID="37" v:groupContext="shape" v:layerMember="0" transform="translate(322.035,-65.7202)">
			<title>Dynamic connector.37</title>
			<desc>Enable = 1 &#38; Direction=1</desc>
			<v:textBlock v:margins="rect(4,4,4,4)" v:tabSpace="42.5197"/>
			<v:textRect cx="34.0866" cy="207.976" width="90.39" height="17.6036"/>
			<path d="M7.09 284.51 C39.03 284.51 42.63 163.97 17.88 136.83 L17.56 136.66" class="st4"/>
			<rect v:rectContext="textBkgnd" x="-6.20207" y="203.176" width="80.5776" height="9.59985" class="st8"/>
			<text x="-6.2" y="210.38" class="st7" v:langID="1033"><v:paragraph v:horizAlign="1"/><v:tabList/>Enable = 1 &#38; Direction=1</text>		</g>
	</g>
</svg>
